<svg xmlns="http://www.w3.org/2000/svg" viewBox="0 0 512 512">
  <defs>
    <linearGradient id="bg" x1="0" y1="0" x2="1" y2="1">
      <stop offset="0%" stop-color="#1a2236"/>
      <stop offset="55%" stop-color="#131927"/>
      <stop offset="100%" stop-color="#0a0d14"/>
    </linearGradient>
    <linearGradient id="gold" x1="0" y1="0" x2="0" y2="1">
      <stop offset="0%" stop-color="#ecc683"/>
      <stop offset="50%" stop-color="#d4a853"/>
      <stop offset="100%" stop-color="#b8842a"/>
    </linearGradient>
  </defs>

  <rect width="512" height="512" rx="112" ry="112" fill="url(#bg)"/>

  <path d="M 120 168
           C 120 128, 152 96, 192 96
           L 356 96
           C 396 96, 428 128, 428 168
           L 428 300
           C 428 340, 396 372, 356 372
           L 240 372
           L 174 428
           C 166 434, 156 428, 158 418
           L 170 372
           L 160 372
           C 136 372, 120 356, 120 332
           Z"
        fill="url(#gold)"/>

  <path d="M 230 196
           A 50 50 0 1 1 280 246
           L 280 272"
        stroke="#0d1117" stroke-width="34" fill="none"
        stroke-linecap="round" stroke-linejoin="round"/>

  <circle cx="280" cy="316" r="20" fill="#0d1117"/>
</svg>
